<svg xmlns="http://www.w3.org/2000/svg" viewBox="0 0 124 32">
  <path fill="#003087" d="M46.2 6.5h-6.7c-.5 0-.9.3-1 .8l-2.7 17.2c-.1.3.2.6.5.6h3.2c.5 0 .9-.3 1-.8l.7-4.3c.1-.5.5-.8 1-.8h2.1c4.3 0 6.8-2.1 7.5-6.3.3-1.8 0-3.1-.8-4-1-.9-2.6-1.4-4.8-1.4zm.8 6.3c-.4 2.4-2.2 2.4-4 2.4h-1l.7-4.3c0-.3.2-.4.4-.4h.4c1.1 0 2.1 0 2.6.6.3.3.4.9.3 1.7z"></path>
  <path fill="#009cde" d="M77.3 6.5h-6.7c-.5 0-.9.3-1 .8l-2.7 17.2c-.1.3.2.6.5.6h3c.5 0 .9-.3 1-.8l.7-4.3c.1-.5.5-.8 1-.8h2.1c4.3 0 6.8-2.1 7.5-6.3.3-1.8 0-3.1-.8-4-1-.9-2.6-1.4-4.6-1.4zm.8 6.3c-.4 2.4-2.2 2.4-4 2.4h-1l.7-4.3c0-.3.2-.4.4-.4h.4c1.1 0 2.1 0 2.6.6.3.3.4.9.3 1.7z"></path>
</svg>